<?xml version="1.0" standalone="no"?>
<!DOCTYPE svg PUBLIC "-//W3C//DTD SVG 20010904//EN"
 "http://www.w3.org/TR/2001/REC-SVG-20010904/DTD/svg10.dtd">
<svg version="1.0" xmlns="http://www.w3.org/2000/svg"
 width="254.000000pt" height="56.000000pt" viewBox="0 0 254.000000 56.000000"
 preserveAspectRatio="xMidYMid meet">

<g transform="translate(0.000000,56.000000) scale(0.100000,-0.100000)"
fill="#000000" stroke="none">
<path d="M25 501 c-3 -5 0 -13 6 -17 7 -4 9 -3 5 4 -3 5 0 13 6 15 9 4 10 6 1
6 -6 1 -14 -3 -18 -8z"/>
<path d="M60 500 c0 -5 6 -10 13 -10 8 0 7 -3 -2 -9 -12 -8 -10 -15 12 -38 16
-15 44 -48 65 -72 20 -24 48 -48 62 -53 40 -17 130 -8 130 13 0 6 -4 8 -8 5
-5 -3 -27 1 -50 7 -30 9 -65 35 -122 90 -75 73 -100 90 -100 67z"/>
<path d="M438 453 c-67 -71 -86 -103 -62 -103 11 0 14 -5 10 -17 -4 -10 34 22
84 72 49 49 90 93 90 97 0 5 -12 8 -26 8 -22 0 -25 -2 -14 -15 10 -13 9 -15
-10 -15 -16 0 -20 4 -16 15 9 23 3 19 -56 -42z"/>
<path d="M692 278 l3 -233 150 0 c172 0 197 8 243 77 26 40 27 46 25 155 -3
111 -13 154 -46 196 -21 26 -45 30 -220 34 l-157 5 2 -234z m278 41 c41 -78
40 -121 -4 -165 -26 -26 -43 -34 -69 -34 -65 0 -124 72 -106 133 10 34 64 134
87 160 16 18 17 18 39 -10 13 -15 36 -53 53 -84z"/>
<path d="M1294 494 c10 -9 37 -14 80 -14 42 0 66 -4 66 -11 0 -6 6 -9 14 -6
20 8 87 -12 109 -31 26 -23 44 -23 42 0 -2 24 -49 47 -115 54 -25 3 -49 9 -55
13 -5 5 -43 8 -82 9 -63 0 -71 -2 -59 -14z m296 -64 c0 -15 -5 -12 -26 11 -19
22 -19 22 4 10 12 -6 22 -16 22 -21z"/>
<path d="M1823 280 l2 -235 70 0 70 0 2 210 c2 116 1 220 -2 233 -5 20 -11 22
-65 22 -41 0 -60 -4 -60 -12 0 -9 -4 -8 -10 2 -7 10 -9 -64 -7 -220z m24 46
c-4 -64 -17 -69 -17 -8 0 29 5 52 10 52 6 0 9 -19 7 -44z"/>
<path d="M2128 435 c-2 -38 -2 -143 0 -232 l3 -163 24 0 c31 0 42 37 26 90
-15 52 -14 87 5 94 9 3 60 6 115 6 106 0 137 9 175 52 24 25 40 68 27 68 -5 0
-9 18 -9 40 -1 40 -28 85 -45 74 -4 -2 -16 7 -25 21 l-17 26 -138 -3 -138 -3
-3 -70z m172 51 c0 -3 -4 -8 -10 -11 -5 -3 -10 -1 -10 4 0 6 5 11 10 11 6 0
10 -2 10 -4z m37 -2 c-3 -3 -12 -4 -19 -1 -8 3 -5 6 6 6 11 1 17 -2 13 -5z
m87 -53 c28 -26 34 -69 16 -115 -6 -18 -19 -27 -46 -32 -42 -8 -183 -12 -201
-6 -8 3 -13 23 -13 53 0 26 -5 60 -12 74 -20 44 9 56 129 53 92 -3 104 -5 127
-27z"/>
<path d="M1263 270 c2 -223 2 -225 24 -228 21 -3 21 -2 16 115 -3 65 -10 126
-14 135 -5 9 -9 47 -10 85 -1 37 -5 79 -9 93 -5 14 -8 -74 -7 -200z"/>
<path d="M1306 461 c-7 -10 -4 -62 3 -56 4 5 8 65 4 65 -1 0 -4 -4 -7 -9z"/>
<path d="M1591 370 c0 -29 1 -32 10 -17 7 11 7 23 0 35 -9 14 -10 11 -10 -18z"/>
<path d="M355 330 c3 -5 8 -10 11 -10 2 0 4 5 4 10 0 6 -5 10 -11 10 -5 0 -7
-4 -4 -10z"/>
<path d="M1590 305 c12 -15 30 -12 30 6 0 5 -10 9 -21 9 -18 0 -19 -2 -9 -15z"/>
<path d="M1436 271 c-3 -5 7 -14 23 -21 16 -6 61 -47 101 -91 40 -44 75 -78
77 -75 9 9 -110 145 -149 171 -42 28 -45 29 -52 16z"/>
<path d="M193 224 l-28 -26 28 17 c18 10 38 14 53 11 17 -5 24 -2 24 9 0 24
-46 18 -77 -11z"/>
<path d="M310 240 c20 -13 33 -13 25 0 -3 6 -14 10 -23 10 -15 0 -15 -2 -2
-10z"/>
<path d="M1335 239 c-4 -5 15 -9 45 -9 70 0 96 -16 176 -109 38 -45 72 -81 77
-81 4 0 -4 12 -18 28 -15 15 -46 52 -70 82 -24 30 -57 62 -72 71 -33 19 -130
32 -138 18z"/>
<path d="M370 205 c-18 -22 2 -44 23 -26 12 9 16 7 20 -9 3 -11 1 -23 -4 -26
-5 -3 12 -27 38 -55 41 -43 51 -49 87 -49 40 0 41 14 1 22 -11 2 -20 10 -20
18 0 16 -101 120 -117 120 -5 0 -6 5 -3 10 10 16 -11 12 -25 -5z"/>
<path d="M193 198 c-13 -6 -23 -16 -23 -22 0 -7 -3 -6 -8 1 -5 9 -31 -11 -82
-62 l-74 -75 40 0 c35 0 46 7 92 53 29 30 52 60 50 68 -2 8 3 13 11 11 15 -3
41 16 41 29 0 12 -19 10 -47 -3z m-43 -42 c0 -2 -7 -9 -15 -16 -13 -11 -14
-10 -9 4 5 14 24 23 24 12z m-58 -88 c-9 -9 -15 -9 -24 0 -9 9 -7 12 12 12 19
0 21 -3 12 -12z"/>
</g>
</svg>
